<svg viewBox="0 0 1200 760" xmlns="http://www.w3.org/2000/svg" font-family="'Segoe UI', Helvetica, Arial, sans-serif">
  <defs>
    <marker id="front-arrow" markerWidth="12" markerHeight="12" refX="9" refY="4" orient="auto">
      <path d="M0,0 L0,8 L10,4 z" fill="#172033"/>
    </marker>
    <linearGradient id="camera-cone" x1="0" y1="1" x2="0" y2="0">
      <stop offset="0" stop-color="#7c3aed" stop-opacity="0.35"/>
      <stop offset="1" stop-color="#7c3aed" stop-opacity="0.05"/>
    </linearGradient>
    <linearGradient id="left-cone" x1="1" y1="0" x2="0" y2="0">
      <stop offset="0" stop-color="#f59e0b" stop-opacity="0.38"/>
      <stop offset="1" stop-color="#f59e0b" stop-opacity="0.05"/>
    </linearGradient>
    <linearGradient id="right-cone" x1="0" y1="0" x2="1" y2="0">
      <stop offset="0" stop-color="#f59e0b" stop-opacity="0.38"/>
      <stop offset="1" stop-color="#f59e0b" stop-opacity="0.05"/>
    </linearGradient>
    <linearGradient id="tof-cone" x1="0" y1="0" x2="0" y2="1">
      <stop offset="0" stop-color="#0f9f75" stop-opacity="0.4"/>
      <stop offset="1" stop-color="#0f9f75" stop-opacity="0.05"/>
    </linearGradient>
  </defs>

  <rect width="1200" height="760" fill="#ffffff"/>
  <text x="50" y="52" font-size="28" font-weight="700" fill="#172033">Sensor Placement and Roles</text>
  <text x="50" y="80" font-size="14" fill="#64748b">Conceptual top view · component positions show function and direction, not measured coordinates</text>

  <line x1="600" y1="128" x2="600" y2="96" stroke="#172033" stroke-width="4" marker-end="url(#front-arrow)"/>
  <text x="600" y="155" text-anchor="middle" font-size="15" font-weight="700" fill="#172033">FRONT</text>

  <path d="M535 225 L430 100 L770 100 L665 225 Z" fill="url(#camera-cone)" stroke="#7c3aed" stroke-width="1.5" stroke-dasharray="7 6"/>
  <path d="M395 330 L85 245 L85 475 L395 390 Z" fill="url(#left-cone)" stroke="#d97706" stroke-width="1.5" stroke-dasharray="7 6"/>
  <path d="M805 330 L1115 245 L1115 475 L805 390 Z" fill="url(#right-cone)" stroke="#d97706" stroke-width="1.5" stroke-dasharray="7 6"/>
  <path d="M565 610 L500 730 L700 730 L635 610 Z" fill="url(#tof-cone)" stroke="#0f9f75" stroke-width="1.5" stroke-dasharray="7 6"/>

  <rect x="390" y="205" width="420" height="410" rx="46" fill="#10253f" stroke="#071426" stroke-width="4"/>
  <rect x="425" y="240" width="350" height="340" rx="28" fill="#193a5a" stroke="#315a7d" stroke-width="2"/>

  <rect x="350" y="250" width="55" height="120" rx="20" fill="#262b33"/>
  <rect x="795" y="250" width="55" height="120" rx="20" fill="#262b33"/>
  <rect x="350" y="470" width="55" height="120" rx="20" fill="#262b33"/>
  <rect x="795" y="470" width="55" height="120" rx="20" fill="#262b33"/>
  <path d="M365 252 L390 272 L390 348 L365 368" fill="none" stroke="#ef4444" stroke-width="5"/>
  <path d="M835 252 L810 272 L810 348 L835 368" fill="none" stroke="#ef4444" stroke-width="5"/>

  <rect x="535" y="210" width="130" height="54" rx="10" fill="#f3e8ff" stroke="#7c3aed" stroke-width="2"/>
  <circle cx="600" cy="230" r="13" fill="#7c3aed"/>
  <text x="600" y="254" text-anchor="middle" font-size="12" font-weight="700" fill="#4c1d95">IMX708 camera</text>

  <rect x="375" y="335" width="52" height="85" rx="8" fill="#fff7ed" stroke="#d97706" stroke-width="2"/>
  <circle cx="394" cy="355" r="11" fill="#f59e0b"/>
  <circle cx="394" cy="389" r="11" fill="#f59e0b"/>
  <rect x="773" y="335" width="52" height="85" rx="8" fill="#fff7ed" stroke="#d97706" stroke-width="2"/>
  <circle cx="806" cy="355" r="11" fill="#f59e0b"/>
  <circle cx="806" cy="389" r="11" fill="#f59e0b"/>

  <rect x="500" y="315" width="200" height="105" rx="12" fill="#e0f2fe" stroke="#2563eb" stroke-width="2"/>
  <text x="600" y="353" text-anchor="middle" font-size="18" font-weight="700" fill="#1e3a8a">Raspberry Pi 4</text>
  <text x="600" y="380" text-anchor="middle" font-size="13" fill="#1e3a8a">sensor processing</text>
  <text x="600" y="401" text-anchor="middle" font-size="13" fill="#1e3a8a">and control</text>

  <rect x="468" y="460" width="125" height="78" rx="10" fill="#fee2e2" stroke="#dc2626" stroke-width="2"/>
  <text x="530" y="492" text-anchor="middle" font-size="16" font-weight="700" fill="#991b1b">L298N</text>
  <text x="530" y="516" text-anchor="middle" font-size="12" fill="#991b1b">motor control</text>

  <rect x="610" y="460" width="125" height="78" rx="10" fill="#fef3c7" stroke="#d97706" stroke-width="2"/>
  <text x="672" y="492" text-anchor="middle" font-size="15" font-weight="700" fill="#92400e">3S pack</text>
  <text x="672" y="516" text-anchor="middle" font-size="12" fill="#92400e">drive power</text>

  <rect x="560" y="575" width="80" height="38" rx="8" fill="#d1fae5" stroke="#0f9f75" stroke-width="2"/>
  <circle cx="600" cy="594" r="9" fill="#0f9f75"/>

  <text x="80" y="220" font-size="16" font-weight="700" fill="#92400e">LEFT ULTRASONIC</text>
  <text x="80" y="515" font-size="13" fill="#92400e">Measures the left wall</text>
  <text x="80" y="535" font-size="13" fill="#92400e">and detects openings</text>

  <text x="1120" y="220" text-anchor="end" font-size="16" font-weight="700" fill="#92400e">RIGHT ULTRASONIC</text>
  <text x="1120" y="515" text-anchor="end" font-size="13" fill="#92400e">Measures the right wall</text>
  <text x="1120" y="535" text-anchor="end" font-size="13" fill="#92400e">and detects openings</text>

  <text x="600" y="690" text-anchor="middle" font-size="16" font-weight="700" fill="#047857">REAR VL53L0X</text>
  <text x="600" y="712" text-anchor="middle" font-size="13" fill="#047857">Short-range parking clearance</text>

  <rect x="865" y="610" width="275" height="110" rx="12" fill="#f8fafc" stroke="#cbd5e1"/>
  <text x="885" y="638" font-size="14" font-weight="700" fill="#334155">FIELD-OF-VIEW KEY</text>
  <rect x="885" y="655" width="28" height="12" fill="#f59e0b" fill-opacity="0.35" stroke="#d97706"/>
  <text x="925" y="666" font-size="12" fill="#475569">Ultrasonic wall sensing</text>
  <rect x="885" y="680" width="28" height="12" fill="#7c3aed" fill-opacity="0.30" stroke="#7c3aed"/>
  <text x="925" y="691" font-size="12" fill="#475569">Forward colour vision</text>
  <rect x="885" y="705" width="28" height="12" fill="#0f9f75" fill-opacity="0.35" stroke="#0f9f75"/>
  <text x="925" y="716" font-size="12" fill="#475569">Rear parking ranging</text>
</svg>
